<svg width="35" height="35" viewBox="0 0 35 35" fill="none" xmlns="http://www.w3.org/2000/svg">
<path d="M32.8125 17.5002C32.8134 17.8716 32.7182 18.2368 32.5361 18.5605C32.354 18.8842 32.0913 19.1552 31.7734 19.3473L12.075 31.3977C11.7429 31.601 11.3625 31.712 10.9732 31.7193C10.5838 31.7265 10.1996 31.6296 9.86016 31.4387C9.52398 31.2507 9.24393 30.9766 9.04882 30.6445C8.8537 30.3124 8.75056 29.9344 8.75 29.5492V5.45117C8.75056 5.06601 8.8537 4.68796 9.04882 4.35588C9.24393 4.0238 9.52398 3.74968 9.86016 3.56172C10.1996 3.37079 10.5838 3.27393 10.9732 3.28114C11.3625 3.28835 11.7429 3.39937 12.075 3.60273L31.7734 15.6531C32.0913 15.8452 32.354 16.1162 32.5361 16.4399C32.7182 16.7636 32.8134 17.1288 32.8125 17.5002Z" fill="black"/>
</svg>
