<svg width="35" height="35" viewBox="0 0 35 35" fill="none" xmlns="http://www.w3.org/2000/svg">
<path d="M28.1172 26.57C28.2188 26.6717 28.2994 26.7923 28.3544 26.9251C28.4094 27.0579 28.4377 27.2002 28.4377 27.3439C28.4377 27.4876 28.4094 27.6299 28.3544 27.7627C28.2994 27.8954 28.2188 28.0161 28.1172 28.1177C28.0156 28.2193 27.8949 28.2999 27.7622 28.3549C27.6294 28.4099 27.4871 28.4382 27.3434 28.4382C27.1997 28.4382 27.0574 28.4099 26.9246 28.3549C26.7918 28.2999 26.6712 28.2193 26.5696 28.1177L17.4996 19.0464L8.42971 28.1177C8.22448 28.3229 7.94612 28.4382 7.65588 28.4382C7.36564 28.4382 7.08729 28.3229 6.88205 28.1177C6.67682 27.9125 6.56152 27.6341 6.56152 27.3439C6.56152 27.0536 6.67682 26.7753 6.88205 26.57L15.9533 17.5001L6.88205 8.4302C6.67682 8.22497 6.56152 7.94661 6.56152 7.65637C6.56152 7.36613 6.67682 7.08777 6.88205 6.88254C7.08729 6.67731 7.36564 6.56201 7.65588 6.56201C7.94612 6.56201 8.22448 6.67731 8.42971 6.88254L17.4996 15.9538L26.5696 6.88254C26.7748 6.67731 27.0531 6.56201 27.3434 6.56201C27.6336 6.56201 27.912 6.67731 28.1172 6.88254C28.3224 7.08777 28.4377 7.36613 28.4377 7.65637C28.4377 7.94661 28.3224 8.22497 28.1172 8.4302L19.0459 17.5001L28.1172 26.57Z" fill="white"/>
</svg>
