<svg width="40" height="40" viewBox="0 0 40 40" fill="none" xmlns="http://www.w3.org/2000/svg">
<path d="M6.66634 33.3332C5.74967 33.3332 4.96523 33.0071 4.31301 32.3548C3.66079 31.7026 3.33412 30.9176 3.33301 29.9998V9.99984C3.33301 9.08317 3.65967 8.29873 4.31301 7.6465C4.96634 6.99428 5.75079 6.66762 6.66634 6.6665H33.333C34.2497 6.6665 35.0347 6.99317 35.688 7.6465C36.3413 8.29984 36.6675 9.08428 36.6663 9.99984V29.9998C36.6663 30.9165 36.3402 31.7015 35.688 32.3548C35.0358 33.0082 34.2508 33.3343 33.333 33.3332H6.66634ZM19.9997 21.6665L33.333 13.3332V9.99984L19.9997 18.3332L6.66634 9.99984V13.3332L19.9997 21.6665Z" fill="black"/>
</svg>
