<svg width="37" height="37" viewBox="0 0 37 37" fill="none" xmlns="http://www.w3.org/2000/svg">
<g clip-path="url(#clip0_2179_6)">
<path d="M18.5 37C13.5935 37 8.88795 35.0509 5.41852 31.5815C1.9491 28.1121 0 23.4065 0 18.5C0 13.5935 1.9491 8.88795 5.41852 5.41852C8.88795 1.9491 13.5935 0 18.5 0C23.4065 0 28.1121 1.9491 31.5815 5.41852C35.0509 8.88795 37 13.5935 37 18.5C37 23.4065 35.0509 28.1121 31.5815 31.5815C28.1121 35.0509 23.4065 37 18.5 37ZM32.8375 22.2C33.4633 19.773 33.4633 17.227 32.8375 14.8H25.7705C25.9419 17.2637 25.9419 19.7363 25.7705 22.2H32.8375ZM31.3205 25.9H25.3635C25.0536 28.1299 24.4631 30.3117 23.606 32.3935C26.8559 31.1946 29.5847 28.8977 31.3205 25.9ZM14.948 22.2H22.052C22.2528 19.7374 22.2528 17.2626 22.052 14.8H14.948C14.7472 17.2626 14.7472 19.7374 14.948 22.2ZM15.4105 25.9C16.169 30.34 17.501 33.3 18.5 33.3C19.499 33.3 20.831 30.34 21.5895 25.9H15.4105ZM4.1625 22.2H11.2295C11.0581 19.7363 11.0581 17.2637 11.2295 14.8H4.1625C3.53669 17.227 3.53669 19.773 4.1625 22.2ZM5.6795 25.9C7.41527 28.8977 10.1441 31.1946 13.394 32.3935C12.617 30.6175 12.025 28.3975 11.6365 25.9H5.6795ZM31.3205 11.1C29.5847 8.10227 26.8559 5.80537 23.606 4.6065C24.383 6.3825 24.975 8.6025 25.3635 11.1H31.3205ZM15.4105 11.1H21.5895C20.831 6.66 19.499 3.7 18.5 3.7C17.501 3.7 16.169 6.66 15.4105 11.1ZM5.6795 11.1H11.6365C12.0065 8.6025 12.617 6.3825 13.394 4.6065C10.1441 5.80537 7.41527 8.10227 5.6795 11.1Z" fill="black"/>
</g>
<defs>
<clipPath id="clip0_2179_6">
<rect width="37" height="37" fill="white"/>
</clipPath>
</defs>
</svg>
